<svg xmlns="http://www.w3.org/2000/svg" viewBox="0 0 892.15 185.47"><defs><style>.cls-1{fill:#f7f0f5;}</style></defs><title>Asset 1-logo</title><g id="Layer_2" data-name="Layer 2"><g id="Layer_1-2" data-name="Layer 1"><path class="cls-1" d="M89.7.44c6.24,0,12.69-1.06,18.67.18C134.75,6.11,155,20.79,168.19,44.17c16.62,29.42,15.33,59.07-.85,88.38a12,12,0,0,1-1.19,1.49,9.32,9.32,0,0,1-.4-2c.49-13.87-1.37-27.4-6.52-40.32C146.32,59.29,123.05,38.82,88.34,33,60.51,28.4,36,36.73,15,55.35c-4,3.5-7.19,7.82-10.77,11.74a17.27,17.27,0,0,1-1.59,1.36,10.39,10.39,0,0,1,0-2.16A80.33,80.33,0,0,1,16.74,35.17C30.31,17,48.24,5.21,70.53.66,76.22-.5,82.3.25,88.2.12h1.5Z"/><path class="cls-1" d="M88.3,179.38c-39-.29-73.35-25-85.19-61.67-1-3.16-1.5-6.5-2.58-9.63-1.54-4.44.63-8.14,2.06-12C10.13,76,23.46,61,43.08,51.86a2.62,2.62,0,0,1,.45-.21L46.31,51a23.65,23.65,0,0,1-.76,2.52A81.6,81.6,0,0,0,39.75,94a84.42,84.42,0,0,0,19.63,46.36c12.68,15.17,28.84,25.15,47.77,30.74,2.71.8,5.5,1.35,8.23,2.06a11.72,11.72,0,0,1,1.75.76,6.86,6.86,0,0,1-1.6.93c-5,1.22-10,2.63-15.06,3.5C96.48,179.06,92.36,179.07,88.3,179.38Z"/><path class="cls-1" d="M390,116.08c0,12.89,0,25.77,0,38.65,0,6.33-1.21,12.39-4.68,17.84-5.15,8.05-12.79,11.88-22.08,12.71-9.07.81-17.73-1.07-26.09-4.47-3.61-1.46-4.94-4.4-3.59-7.55,1.26-2.94,4.31-4,7.83-2.62,6.24,2.45,12.53,4.41,19.37,4.19,9.75-.32,16.88-6.92,17.49-16.66.23-3.56,0-7.14.13-10.71.06-2.31-.73-2.22-2.46-1.3-9.8,5.18-20,5.74-30.09,1.31-11.5-5-16.4-14.61-16.69-26.7-.22-9-.2-18.12,0-27.18.36-17.74,12.47-29.47,30.31-29.5a72.12,72.12,0,0,1,24.07,3.74c4.78,1.66,6.49,4,6.5,9.11C390,90,390,103,390,116.08Zm-11.67-11c0-8.31-.07-16.62.06-24.93,0-2.2-.73-3.23-2.82-3.5-5.19-.67-10.37-1.8-15.57-2-11.46-.33-19,6.35-19.29,17-.27,10.29-.22,20.61,0,30.91.18,9,5.86,15.36,14.55,16.71a27.34,27.34,0,0,0,21-5.13,4.6,4.6,0,0,0,2.12-4.17C378.28,121.73,378.34,113.42,378.33,105.1Z"/><path class="cls-1" d="M693.9,87.87q0,24.67,0,49.36c0,5.43-1.77,7.88-7,9.45-9.82,2.93-19.81,4.71-30,3-13.44-2.23-23-12.59-23.59-26.19-.48-11-.54-22.12,0-33.14.8-15.57,12.62-26,28.77-26.29a39.93,39.93,0,0,1,17.92,3.75c1.87.88,2.49.51,2.48-1.58-.06-9.64,0-19.28,0-28.92,0-3.37,1.82-5.66,4.68-6.14A5.73,5.73,0,0,1,693.87,37c.1,3.66,0,7.31,0,11ZM682.39,109c0-8.38-.06-16.77.05-25.16a4.89,4.89,0,0,0-2.37-4.55c-5.94-4-12.57-5-19.54-4.49-9.29.74-15.78,7.39-15.94,16.68q-.27,15.69,0,31.39c.17,9.7,7.3,16.74,17.22,16.64,5.94-.06,11.87-1.2,17.8-1.86,2.11-.23,2.87-1.28,2.84-3.48C682.32,125.82,682.4,117.43,682.39,109ZM693,87.65q0,24.42,0,48.83a10.54,10.54,0,0,0,.24,1.66,13.64,13.64,0,0,0,.22-1.67q0-48.82,0-97.65a12,12,0,0,0-.23-1.67,12.11,12.11,0,0,0-.23,1.68Q693,63.24,693,87.65Z"/><path class="cls-1" d="M203.93,90.57c0-17.45,0-34.9,0-52.35a10.52,10.52,0,0,1,.82-4.32A5.41,5.41,0,0,1,211,31.25a5.34,5.34,0,0,1,4.34,5.37c.09,5.4,0,10.8,0,16.21V65c0,3.8,0,3.79,3.4,2.35A38.41,38.41,0,0,1,240,64.5c14.63,2.26,24.54,13.36,24.69,28.15.17,17.19.06,34.4,0,51.6,0,3.59-2.32,6-5.6,6s-5.77-2.4-5.78-6.11c0-13,0-25.92,0-38.89,0-4,0-8,0-12-.18-11.72-7-18.56-18.78-18.64a27.3,27.3,0,0,0-16.8,5.44,5.3,5.3,0,0,0-2.41,4.79c.08,19.28,0,38.56,0,57.83,0,.83,0,1.67,0,2.49a5.68,5.68,0,0,1-11.27.2,26.92,26.92,0,0,1-.1-3.48Z"/><path class="cls-1" d="M414.62,90.57q0-26.55,0-53.11c0-4.13,2.58-6.69,6.24-6.32,3.22.33,5.14,2.69,5.16,6.5,0,8.9,0,17.79,0,26.68,0,.58,0,1.17,0,1.75-.15,2.07.43,2.69,2.55,1.71A37.42,37.42,0,0,1,449,64.3c16.08,1.85,26.27,13.29,26.29,29.48q0,25.07,0,50.12c0,3.46-1.66,5.74-4.48,6.28-3.74.71-6.77-1.88-6.79-6-.05-9.72,0-19.45,0-29.17,0-7.81.3-15.65-.26-23.42-.8-11-7.06-16.61-18-16.95a26.88,26.88,0,0,0-17.51,5.55,5,5,0,0,0-2.18,4.4c.07,19.12,0,38.24,0,57.35,0,.91,0,1.83,0,2.74a5.62,5.62,0,0,1-5.86,5.54c-3.24-.06-5.49-2.36-5.5-5.83,0-11.39,0-22.78,0-34.16Z"/><path class="cls-1" d="M608.4,113.32q0,12.21,0,24.42c0,4.78-1.74,7.29-6.28,8.7-11.68,3.63-23.57,5.38-35.67,2.52A25.1,25.1,0,0,1,552,109.59c4.09-5.68,9.94-8.29,16.59-9,5.43-.61,10.95-.56,16.43-.72,3.25-.09,6.5-.07,9.74,0,1.59,0,2.27-.54,2.23-2.17-.08-2.91.07-5.82,0-8.73-.35-8.14-5.39-13.11-14-14.06a34.53,34.53,0,0,0-20,4c-.88.46-1.74,1-2.64,1.41-2.92,1.46-6.25.65-7.69-1.85a5.79,5.79,0,0,1,2-7.65,38.89,38.89,0,0,1,14.54-5.71c7.56-1.42,15.05-1.53,22.45.94,10.54,3.51,16.73,12,16.77,23.11v24.18ZM597,123.79c0-3.66-.09-7.31,0-11,.07-2-.73-2.59-2.64-2.55-4.4.09-8.82-.1-13.22.06a87.52,87.52,0,0,0-11.9,1,11.76,11.76,0,0,0-8.72,6c-4.84,9-.14,19.48,9.88,21.52,8.41,1.72,16.74.58,24.92-1.63a3,3,0,0,0,1.57-2.31C597.08,131.27,597,127.53,597,123.79Z"/><path class="cls-1" d="M153.84,129.66c.47,8.26-1.23,16.64-3.07,25a5.73,5.73,0,0,1-1.76,2.85c-7.4,6.44-8.27,6.82-18.49,6.12a87.27,87.27,0,0,1-46.68-17,11,11,0,0,1-1.66-2,13.44,13.44,0,0,1,2.2-1,97.48,97.48,0,0,0,44.91-25.24A91,91,0,0,0,145,98.18a18.43,18.43,0,0,1,2-2.39,20.75,20.75,0,0,1,1.5,2.78A81,81,0,0,1,153.84,129.66Z"/><path class="cls-1" d="M819,104.6q0,16.7,0,33.4c0,4.62-1.73,7.11-6.18,8.48-10.28,3.17-20.77,5-31.51,3.14-13.37-2.29-22.56-12.51-22.84-26.07-.36-18-.13-36.06-.1-54.09a5.36,5.36,0,0,1,5.19-5.36,5.64,5.64,0,0,1,6,4.83,20.85,20.85,0,0,1,.08,2.74q0,23.55,0,47.11c0,1.33,0,2.66.14,4,.9,10.66,7.49,17,18.15,16.81,5.62-.11,11.21-1.24,16.82-1.86,2.31-.25,2.89-1.5,2.88-3.71-.07-20.53,0-41,0-61.58,0-.74,0-1.49,0-2.24.11-3.62,2.34-6,5.59-6.09S819,66.5,819,70.2C819,81.66,819,93.13,819,104.6Z"/><path class="cls-1" d="M864.23,150.51a50,50,0,0,1-20.08-4.73,8.27,8.27,0,0,1-3.55-3.22,4.8,4.8,0,0,1,1-6c1.94-1.88,4.28-2,6.72-1,5.84,2.62,11.91,4.48,18.36,3.94a20.9,20.9,0,0,0,8.26-2.38A11.7,11.7,0,0,0,876.47,118a30.08,30.08,0,0,0-6.85-4c-5.32-2.38-10.83-4.34-16.11-6.79-12.67-5.88-15.88-16.93-12-27.84,2.85-8.12,9.45-12.46,17.64-14.3,9.77-2.2,19.21-.61,28.31,3.26a5.53,5.53,0,0,1,3.06,7.44A5.69,5.69,0,0,1,883,78.23a44,44,0,0,0-15.49-3.54A19.12,19.12,0,0,0,856.87,77a10.71,10.71,0,0,0-1.94,17.2,19.84,19.84,0,0,0,5.23,3.32c5.49,2.39,11.14,4.43,16.62,6.84,7,3.09,12.41,7.89,14.52,15.49,3.7,13.32-5.08,26.89-19.16,29.73C869.55,150.07,866.87,150.2,864.23,150.51Z"/><path class="cls-1" d="M500,114.84c0-9.3,0-18.6,0-27.91,0-14.31,10.36-23.89,24.63-22.77a88.14,88.14,0,0,1,9.14,1.29,5.54,5.54,0,0,1,4.48,6.44A5.48,5.48,0,0,1,532,76.23c-2.56-.33-5.09-.87-7.65-1.14-7.73-.79-12.48,3.26-12.81,11-.19,4.39-.07,8.8-.07,13.2q0,22.19,0,44.35c0,3.73-1.79,6.1-4.81,6.54-3.68.54-6.56-2-6.57-6C500,134.44,500,124.64,500,114.84Z"/><path class="cls-1" d="M291.25,107.35c0-12.29,0-24.59,0-36.88,0-2.67.84-4.71,3.37-5.85a5.65,5.65,0,0,1,7.85,3.8,9.71,9.71,0,0,1,.2,2.22q0,36.52,0,73c0,2.3-.55,4.31-2.54,5.64a5.52,5.52,0,0,1-5.93.3,5.59,5.59,0,0,1-3-5.37q0-15,0-29.91Z"/><path class="cls-1" d="M731.66,107.32q0,18.44,0,36.88c0,3-1.38,5-3.82,5.79s-4.58.3-6.06-1.71a7,7,0,0,1-1.36-3.85q-.1-37.25,0-74.5a5.64,5.64,0,1,1,11.27,0C731.68,82.4,731.66,94.86,731.66,107.32Z"/><path class="cls-1" d="M305.65,43.16a8.63,8.63,0,1,1-17.25,0,8.63,8.63,0,0,1,17.25,0Z"/><path class="cls-1" d="M734,43.1a8.69,8.69,0,1,1-17.38.34A8.69,8.69,0,0,1,734,43.1Z"/><path class="cls-1" d="M693,87.65q0-24.41,0-48.82a12.11,12.11,0,0,1,.23-1.68,12,12,0,0,1,.23,1.67q0,48.83,0,97.65a13.64,13.64,0,0,1-.22,1.67,10.54,10.54,0,0,1-.24-1.66Q693,112.06,693,87.65Z"/></g></g></svg>